<?xml version="1.0" encoding="UTF-8" standalone="no"?><!DOCTYPE svg PUBLIC "-//W3C//DTD SVG 1.1//EN" "http://www.w3.org/Graphics/SVG/1.1/DTD/svg11.dtd"><svg width="100%" height="100%" viewBox="0 0 246 246" version="1.1" xmlns="http://www.w3.org/2000/svg" xmlns:xlink="http://www.w3.org/1999/xlink" xml:space="preserve" xmlns:serif="http://www.serif.com/" style="fill-rule:evenodd;clip-rule:evenodd;stroke-linejoin:round;stroke-miterlimit:1.41421;"><rect id="backgronud" x="0" y="0" width="245.76" height="245.76" style="fill:#fff;"/><g id="chessboard"><rect id="backgronud1" serif:id="backgronud" x="0" y="122.88" width="61.44" height="61.44" style="fill:#949494;fill-opacity:0.701961;"/><rect id="backgronud2" serif:id="backgronud" x="0" y="0" width="61.44" height="61.44" style="fill:#949494;fill-opacity:0.701961;"/><rect id="backgronud3" serif:id="backgronud" x="61.439" y="61.44" width="61.44" height="61.44" style="fill:#949494;fill-opacity:0.701961;"/><rect id="backgronud4" serif:id="backgronud" x="61.44" y="184.32" width="61.44" height="61.44" style="fill:#949494;fill-opacity:0.701961;"/><rect id="backgronud5" serif:id="backgronud" x="122.88" y="0" width="61.44" height="61.44" style="fill:#949494;fill-opacity:0.701961;"/><rect id="backgronud6" serif:id="backgronud" x="122.88" y="122.88" width="61.44" height="61.44" style="fill:#949494;fill-opacity:0.701961;"/><rect id="backgronud7" serif:id="backgronud" x="184.32" y="61.44" width="61.44" height="61.44" style="fill:#949494;fill-opacity:0.701961;"/><rect id="backgronud8" serif:id="backgronud" x="184.32" y="184.32" width="61.44" height="61.44" style="fill:#949494;fill-opacity:0.701961;"/></g><g id="horse"><path d="M78.451,108.826c-3.949,-5.135 -10.836,-10.145 -4.818,-15.114c6.018,-4.972 31.659,-24.594 38.984,-30.35c7.326,-5.756 6.28,-13.079 5.757,-16.221c-0.524,-3.14 9.679,1.049 12.819,7.851c3.14,6.801 11.251,6.541 16.223,6.541c4.971,0 29.041,9.156 26.949,79.54c-12.82,-4.188 -24.07,15.437 -24.07,15.437l-43.696,0l-14.39,-21.192c0,0 35.321,-19.888 35.844,-36.631c-14.39,13.343 -17.79,8.11 -25.379,8.11c-7.587,-0.003 -15.568,13.274 -24.223,2.029Z" style="fill-rule:nonzero;"/><path d="M165.749,173.408c0,2.072 -1.695,3.767 -3.767,3.767l-69.997,0c-2.072,0 -3.767,-1.695 -3.767,-3.767l0,-11.301c0,-2.072 1.695,-3.768 3.767,-3.768l69.997,0c2.072,0 3.767,1.696 3.767,3.768l0,11.301Z" style="fill-rule:nonzero;"/><path d="M170.777,184.734c0,2.072 -1.696,3.767 -3.768,3.767l-79.741,0c-2.072,0 -3.767,-1.695 -3.767,-3.767l0,-1.884c0,-2.072 1.695,-3.767 3.767,-3.767l79.741,0c2.072,0 3.768,1.695 3.768,3.767l0,1.884Z" style="fill-rule:nonzero;"/><path d="M174.493,195.913c0,2.072 -1.695,3.767 -3.767,3.767l-87.172,0c-2.072,0 -3.767,-1.695 -3.767,-3.767l0,-1.882c0,-2.072 1.695,-3.767 3.767,-3.767l87.174,0c2.071,0 3.767,1.695 3.767,3.767l0,1.882l-0.002,0Z" style="fill-rule:nonzero;"/></g></svg>