<svg xmlns="http://www.w3.org/2000/svg" xmlns:xlink="http://www.w3.org/1999/xlink" version="1.1" x="0px" y="0px" viewBox="0 0 100 125" enable-background="new 0 0 100 100" xml:space="preserve"><g><path d="M25.163,40.775c-2.097-2.726-5.753-5.386-2.558-8.024c3.195-2.64,16.808-13.057,20.697-16.113   c3.889-3.056,3.334-6.944,3.056-8.612c-0.278-1.667,5.139,0.557,6.806,4.168c1.667,3.611,5.973,3.473,8.613,3.473   c2.639,0,15.418,4.861,14.307,42.228c-6.806-2.223-12.779,8.196-12.779,8.196H40.107l-7.64-11.251c0,0,18.752-10.559,19.03-19.448   c-7.64,7.084-9.445,4.306-13.474,4.306C33.995,39.696,29.758,46.745,25.163,40.775z"/></g><g><path d="M71.51,75.062c0,1.1-0.9,2-2,2H32.348c-1.1,0-2-0.9-2-2v-6c0-1.1,0.9-2,2-2H69.51c1.1,0,2,0.9,2,2V75.062z"/></g><g><path d="M74.179,81.075c0,1.1-0.9,2-2,2H29.844c-1.1,0-2-0.9-2-2v-1c0-1.1,0.9-2,2-2h42.335c1.1,0,2,0.9,2,2V81.075z"/></g><g><path d="M76.152,87.01c0,1.1-0.9,2-2,2H27.872c-1.1,0-2-0.9-2-2v-0.999c0-1.1,0.9-2,2-2h46.281c1.1,0,2,0.9,2,2V87.01z"/></g><text x="0" y="115" fill="#000000" font-size="5px" font-weight="bold" font-family="'Helvetica Neue', Helvetica, Arial-Unicode, Arial, Sans-serif">Created by Dima Lagunov</text><text x="0" y="120" fill="#000000" font-size="5px" font-weight="bold" font-family="'Helvetica Neue', Helvetica, Arial-Unicode, Arial, Sans-serif">from the Noun Project</text></svg>